<?xml version="1.0" encoding="UTF-8"?>
<svg width="400" height="300" viewBox="0 0 400 300" fill="none" xmlns="http://www.w3.org/2000/svg">
  <!-- 背景圆形 -->
  <circle cx="200" cy="150" r="120" fill="#F3F4FE" />
  
  <!-- 机器人身体 -->
  <rect x="160" y="120" width="80" height="100" rx="10" fill="#4F46E5" />
  
  <!-- 机器人头部 -->
  <rect x="150" y="70" width="100" height="80" rx="15" fill="#4F46E5" />
  
  <!-- 机器人眼睛 -->
  <circle cx="180" cy="100" r="10" fill="#FFFFFF" />
  <circle cx="220" cy="100" r="10" fill="#FFFFFF" />
  <circle cx="180" cy="100" r="5" fill="#10B981" />
  <circle cx="220" cy="100" r="5" fill="#10B981" />
  
  <!-- 机器人嘴巴 -->
  <rect x="175" y="125" width="50" height="5" rx="2.5" fill="#FFFFFF" />
  
  <!-- 机器人天线 -->
  <line x1="200" y1="70" x2="200" y2="50" stroke="#4F46E5" stroke-width="4" />
  <circle cx="200" cy="45" r="5" fill="#10B981" />
  
  <!-- 机器人手臂 -->
  <line x1="160" y1="140" x2="130" y2="120" stroke="#4F46E5" stroke-width="10" stroke-linecap="round" />
  <line x1="240" y1="140" x2="270" y2="120" stroke="#4F46E5" stroke-width="10" stroke-linecap="round" />
  
  <!-- 代码元素 -->
  <rect x="280" y="110" width="40" height="6" rx="3" fill="#10B981" />
  <rect x="280" y="120" width="60" height="6" rx="3" fill="#F59E0B" />
  <rect x="280" y="130" width="50" height="6" rx="3" fill="#3B82F6" />
  
  <rect x="80" y="110" width="30" height="6" rx="3" fill="#10B981" />
  <rect x="60" y="120" width="50" height="6" rx="3" fill="#F59E0B" />
  <rect x="70" y="130" width="40" height="6" rx="3" fill="#3B82F6" />
  
  <!-- 装饰元素 -->
  <circle cx="100" cy="70" r="10" fill="#818CF8" opacity="0.5" />
  <circle cx="300" cy="80" r="15" fill="#818CF8" opacity="0.5" />
  <circle cx="80" cy="200" r="12" fill="#818CF8" opacity="0.5" />
  <circle cx="320" cy="190" r="8" fill="#818CF8" opacity="0.5" />
</svg>
